<svg xmlns="http://www.w3.org/2000/svg" viewBox="0 0 512 512" role="img" aria-labelledby="title desc">
  <title id="title">ExifSafe icon</title>
  <desc id="desc">A blue square icon with a white privacy shield and check mark.</desc>
  <rect width="512" height="512" rx="112" fill="#2563eb"/>
  <path
    d="M256 92 376 138v91c0 84-48 158-120 191-72-33-120-107-120-191v-91l120-46Z"
    fill="#ffffff"
  />
  <path
    d="M256 126 342 159v70c0 63-34 121-86 151-52-30-86-88-86-151v-70l86-33Z"
    fill="#dbeafe"
  />
  <path
    d="m226 267 34 34 72-83"
    fill="none"
    stroke="#2563eb"
    stroke-width="32"
    stroke-linecap="round"
    stroke-linejoin="round"
  />
  <path
    d="M164 119h22m-11-11v22M368 354h22m-11-11v22"
    fill="none"
    stroke="#bfdbfe"
    stroke-width="16"
    stroke-linecap="round"
  />
</svg>
